<svg width="100" height="100" viewBox="0 0 100 100" fill="none" xmlns="http://www.w3.org/2000/svg">
  <circle cx="50" cy="50" r="45" fill="#f8fdf8" stroke="#2d5a27" stroke-width="2"/>
  
  <!-- Neural Network Nodes -->
  <!-- Input Layer -->
  <circle cx="25" cy="35" r="4" fill="#4a7c59"/>
  <circle cx="25" cy="50" r="4" fill="#4a7c59"/>
  <circle cx="25" cy="65" r="4" fill="#4a7c59"/>
  
  <!-- Hidden Layer 1 -->
  <circle cx="45" cy="30" r="3" fill="#66bb6a"/>
  <circle cx="45" cy="45" r="3" fill="#66bb6a"/>
  <circle cx="45" cy="60" r="3" fill="#66bb6a"/>
  <circle cx="45" cy="75" r="3" fill="#66bb6a"/>
  
  <!-- Hidden Layer 2 -->
  <circle cx="65" cy="35" r="3" fill="#81c784"/>
  <circle cx="65" cy="50" r="3" fill="#81c784"/>
  <circle cx="65" cy="65" r="3" fill="#81c784"/>
  
  <!-- Output Layer -->
  <circle cx="85" cy="50" r="4" fill="#2d5a27"/>
  
  <!-- Connections (simplified neural network) -->
  <!-- Input to Hidden Layer 1 -->
  <line x1="29" y1="35" x2="41" y2="30" stroke="#4a7c59" stroke-width="1" opacity="0.6"/>
  <line x1="29" y1="35" x2="41" y2="45" stroke="#4a7c59" stroke-width="1" opacity="0.6"/>
  <line x1="29" y1="50" x2="41" y2="45" stroke="#4a7c59" stroke-width="1" opacity="0.6"/>
  <line x1="29" y1="50" x2="41" y2="60" stroke="#4a7c59" stroke-width="1" opacity="0.6"/>
  <line x1="29" y1="65" x2="41" y2="60" stroke="#4a7c59" stroke-width="1" opacity="0.6"/>
  <line x1="29" y1="65" x2="41" y2="75" stroke="#4a7c59" stroke-width="1" opacity="0.6"/>
  
  <!-- Hidden Layer 1 to Hidden Layer 2 -->
  <line x1="48" y1="30" x2="62" y2="35" stroke="#66bb6a" stroke-width="1" opacity="0.6"/>
  <line x1="48" y1="45" x2="62" y2="50" stroke="#66bb6a" stroke-width="1" opacity="0.6"/>
  <line x1="48" y1="60" x2="62" y2="65" stroke="#66bb6a" stroke-width="1" opacity="0.6"/>
  
  <!-- Hidden Layer 2 to Output -->
  <line x1="68" y1="35" x2="81" y2="50" stroke="#81c784" stroke-width="1" opacity="0.6"/>
  <line x1="68" y1="50" x2="81" y2="50" stroke="#81c784" stroke-width="2" opacity="0.8"/>
  <line x1="68" y1="65" x2="81" y2="50" stroke="#81c784" stroke-width="1" opacity="0.6"/>
  
  <!-- Brain Icon -->
  <path d="M35 15 Q45 10 55 15 Q60 20 55 25 Q50 22 45 25 Q40 20 35 15" fill="#2d5a27" opacity="0.3"/>
  <path d="M40 18 Q45 15 50 18" stroke="#2d5a27" stroke-width="1" fill="none"/>
  
  <!-- Data Flow Arrows -->
  <path d="M15 50 L20 48 L20 52 Z" fill="#4a7c59"/>
  <path d="M90 50 L95 48 L95 52 Z" fill="#2d5a27"/>
</svg> 