<svg width="100" height="100" viewBox="0 0 100 100" fill="none" xmlns="http://www.w3.org/2000/svg">
  <circle cx="50" cy="50" r="45" fill="#f8fdf8" stroke="#2d5a27" stroke-width="2"/>
  <!-- IoT Sensors -->
  <circle cx="30" cy="30" r="4" fill="#4a7c59"/>
  <circle cx="70" cy="30" r="4" fill="#4a7c59"/>
  <circle cx="30" cy="70" r="4" fill="#4a7c59"/>
  <circle cx="70" cy="70" r="4" fill="#4a7c59"/>
  <circle cx="50" cy="25" r="3" fill="#81c784"/>
  <circle cx="25" cy="50" r="3" fill="#81c784"/>
  <circle cx="75" cy="50" r="3" fill="#81c784"/>
  <circle cx="50" cy="75" r="3" fill="#81c784"/>
  
  <!-- Central Processing Unit -->
  <circle cx="50" cy="50" r="8" fill="#2d5a27"/>
  
  <!-- Connection Lines -->
  <line x1="30" y1="30" x2="50" y2="50" stroke="#4a7c59" stroke-width="1.5" opacity="0.7"/>
  <line x1="70" y1="30" x2="50" y2="50" stroke="#4a7c59" stroke-width="1.5" opacity="0.7"/>
  <line x1="30" y1="70" x2="50" y2="50" stroke="#4a7c59" stroke-width="1.5" opacity="0.7"/>
  <line x1="70" y1="70" x2="50" y2="50" stroke="#4a7c59" stroke-width="1.5" opacity="0.7"/>
  <line x1="50" y1="25" x2="50" y2="42" stroke="#81c784" stroke-width="1.5" opacity="0.7"/>
  <line x1="25" y1="50" x2="42" y2="50" stroke="#81c784" stroke-width="1.5" opacity="0.7"/>
  <line x1="75" y1="50" x2="58" y2="50" stroke="#81c784" stroke-width="1.5" opacity="0.7"/>
  <line x1="50" y1="75" x2="50" y2="58" stroke="#81c784" stroke-width="1.5" opacity="0.7"/>
  
  <!-- Computer Vision Eye -->
  <path d="M35 20 Q50 15 65 20 Q50 10 35 20" fill="#2d5a27" opacity="0.8"/>
  <circle cx="50" cy="18" r="3" fill="white"/>
  <circle cx="50" cy="18" r="1.5" fill="#2d5a27"/>
</svg> 