<svg width="100" height="100" viewBox="0 0 100 100" fill="none" xmlns="http://www.w3.org/2000/svg">
  <circle cx="50" cy="50" r="45" fill="#f8fdf8" stroke="#2d5a27" stroke-width="2"/>
  
  <!-- Main Gear -->
  <circle cx="50" cy="50" r="18" fill="#4a7c59"/>
  <circle cx="50" cy="50" r="10" fill="#f8fdf8"/>
  
  <!-- Gear Teeth -->
  <rect x="48" y="28" width="4" height="6" fill="#4a7c59"/>
  <rect x="48" y="66" width="4" height="6" fill="#4a7c59"/>
  <rect x="28" y="48" width="6" height="4" fill="#4a7c59"/>
  <rect x="66" y="48" width="6" height="4" fill="#4a7c59"/>
  
  <!-- Diagonal Teeth -->
  <rect x="62" y="32" width="4" height="4" fill="#4a7c59" transform="rotate(45 64 34)"/>
  <rect x="34" y="32" width="4" height="4" fill="#4a7c59" transform="rotate(-45 36 34)"/>
  <rect x="62" y="64" width="4" height="4" fill="#4a7c59" transform="rotate(-45 64 66)"/>
  <rect x="34" y="64" width="4" height="4" fill="#4a7c59" transform="rotate(45 36 66)"/>
  
  <!-- Smaller Connected Gears -->
  <circle cx="25" cy="30" r="8" fill="#66bb6a"/>
  <circle cx="25" cy="30" r="4" fill="#f8fdf8"/>
  
  <circle cx="75" cy="70" r="8" fill="#66bb6a"/>
  <circle cx="75" cy="70" r="4" fill="#f8fdf8"/>
  
  <!-- Small Gear Teeth -->
  <rect x="23" y="18" width="4" height="4" fill="#66bb6a"/>
  <rect x="23" y="38" width="4" height="4" fill="#66bb6a"/>
  <rect x="13" y="28" width="4" height="4" fill="#66bb6a"/>
  <rect x="33" y="28" width="4" height="4" fill="#66bb6a"/>
  
  <rect x="73" y="58" width="4" height="4" fill="#66bb6a"/>
  <rect x="73" y="78" width="4" height="4" fill="#66bb6a"/>
  <rect x="63" y="68" width="4" height="4" fill="#66bb6a"/>
  <rect x="83" y="68" width="4" height="4" fill="#66bb6a"/>
  
  <!-- Connection Lines (Automation Flow) -->
  <line x1="33" y1="30" x2="42" y2="39" stroke="#81c784" stroke-width="2" opacity="0.8"/>
  <line x1="58" y1="61" x2="67" y2="70" stroke="#81c784" stroke-width="2" opacity="0.8"/>
  
  <!-- AI Decision Points -->
  <circle cx="35" cy="15" r="3" fill="#2d5a27"/>
  <circle cx="85" cy="85" r="3" fill="#2d5a27"/>
  <circle cx="15" cy="85" r="3" fill="#2d5a27"/>
  
  <!-- Data Flow Arrows -->
  <path d="M35 18 L40 20 L35 22 Z" fill="#2d5a27"/>
  <path d="M82 85 L87 87 L82 89 Z" fill="#2d5a27"/>
  <path d="M15 82 L20 80 L15 78 Z" fill="#2d5a27"/>
  
  <!-- Automation Indicators -->
  <circle cx="50" cy="20" r="2" fill="#ffc107"/>
  <circle cx="20" cy="50" r="2" fill="#ffc107"/>
  <circle cx="80" cy="50" r="2" fill="#ffc107"/>
  <circle cx="50" cy="80" r="2" fill="#ffc107"/>
  
  <!-- Central Control Symbol -->
  <rect x="47" y="47" width="6" height="6" fill="#2d5a27"/>
</svg> 